IKResults
version=1
nRows=7
nColumns=38
inDegrees=yes

Units are S.I. units (second, meters, Newtons, ...)
If the header above contains a line with 'inDegrees', this indicates whether rotational values are in degrees (yes) or radians (no).

endheader
time	pelvis_tilt	pelvis_list	pelvis_rotation	pelvis_tx	pelvis_ty	pelvis_tz	hip_flexion_r	hip_adduction_r	hip_rotation_r	knee_angle_r	ankle_angle_r	subtalar_angle_r	mtp_angle_r	hip_flexion_l	hip_adduction_l	hip_rotation_l	knee_angle_l	ankle_angle_l	subtalar_angle_l	mtp_angle_l	lumbar_extension	lumbar_bending	lumbar_rotation	arm_flex_r	arm_add_r	arm_rot_r	elbow_flex_r	pro_sup_r	wrist_flex_r	wrist_dev_r	arm_flex_l	arm_add_l	arm_rot_l	elbow_flex_l	pro_sup_l	wrist_flex_l	wrist_dev_l
      3.75400000	      5.26835932	   -181.32393706	    -95.40469308	      0.05798149	     -0.14900441	      1.69752545	     -4.62292112	      0.42255338	     -7.47474738	     12.66305565	      4.62879866	      0.37700000	      0.00000000	     -4.44735275	     -8.35390472	    -12.45421834	     25.94256779	    -23.27113424	      0.00000000	      0.00000000	     -8.31508977	      2.60451535	     -4.80909759	      8.80900932	    -38.50091800	     36.48979061	     62.08715907	    111.16763464	      0.00000000	      0.00000000	      7.99927778	    -40.64198048	     54.29381351	     65.38883700	    112.12583333	      0.00000000	      0.00000000
      3.77100000	      4.66313633	   -180.97194549	    -95.67056606	      0.05749495	     -0.14853698	      1.69824785	     -4.84684096	     -0.18946657	     -7.20223151	     12.88585263	      4.99711820	      0.37700000	      0.00000000	     -3.83405115	     -7.69622392	    -13.14177459	     25.43649304	    -22.76394843	      0.00000000	      0.00000000	     -8.06151761	      1.88797868	     -3.80518381	      7.16874096	    -38.18278848	     33.69353511	     62.40552799	    111.02394970	      0.00000000	      0.00000000	      9.48292671	    -40.86419674	     56.52484549	     65.57381597	    112.09647743	      0.00000000	      0.00000000
      3.78800000	      4.14167689	   -180.79911491	    -95.79259020	      0.05708117	     -0.14820113	      1.69930715	     -5.15909503	     -0.72159017	     -7.11947597	     13.27916186	      5.26504030	      0.37700000	      0.00000000	     -3.40492299	     -7.11256749	    -13.69149591	     24.86166481	    -22.12639920	      0.00000000	      0.00000000	     -8.12930405	      1.25466449	     -2.91826138	      5.49816028	    -37.89305731	     30.76224489	     63.04684929	    110.87308142	      0.00000000	      0.00000000	     10.90262544	    -41.16156864	     58.45471689	     66.01217153	    112.03634703	      0.00000000	      0.00000000
      3.80400000	      3.70373383	   -180.69305087	    -95.91186889	      0.05671135	     -0.14785090	      1.70041143	     -5.44876594	     -1.18358164	     -6.99460959	     13.82109495	      5.46724900	      0.37700000	      0.00000000	     -3.07007903	     -6.58781824	    -14.17914494	     24.23905141	    -21.38472826	      0.00000000	      0.00000000	     -8.32351057	      0.70266360	     -2.48933613	      4.95263455	    -37.89990473	     30.00661648	     63.53913295	    110.81444652	      0.00000000	      0.00000000	     11.13791196	    -41.58092997	     58.48662717	     66.90317029	    111.96623368	      0.00000000	      0.00000000
      3.82100000	      3.45153226	   -180.59890318	    -95.87641018	      0.05672133	     -0.14759264	      1.70125952	     -5.80444196	     -1.45084256	     -7.19594976	     14.25546355	      5.33491261	      0.37700000	      0.00000000	     -2.77968742	     -6.24150869	    -14.57166328	     23.57617408	    -20.38499857	      0.00000000	      0.00000000	     -8.54274553	      0.43115124	     -2.21101033	      4.52870298	    -38.01401826	     29.59782807	     63.91633047	    110.77473566	      0.00000000	      0.00000000	     11.23169732	    -41.82116843	     58.36340538	     67.40769386	    111.92592328	      0.00000000	      0.00000000
      3.83800000	      2.98746236	   -180.94092116	    -95.95322675	      0.05598838	     -0.14778941	      1.70269441	     -6.34797182	     -1.96753313	     -6.99615936	     15.11860509	      5.49189249	      0.37700000	      0.00000000	     -2.97446769	     -5.63888006	    -15.05538071	     22.71044324	    -19.68499626	      0.00000000	      0.00000000	     -9.55053512	     -0.19706808	     -0.94103705	      1.48309660	    -37.52690728	     23.90817995	     65.86017268	    110.48577388	      0.00000000	      0.00000000	     12.64105505	    -42.14410290	     59.29441073	     68.36459115	    111.79974298	      0.00000000	      0.00000000
      3.85400000	      2.76149215	   -181.42916631	    -95.89080595	      0.05579326	     -0.14813292	      1.70394372	     -7.11467017	     -2.25823031	     -7.05297359	     15.86435117	      5.34878993	      0.37700000	      0.00000000	     -3.32286549	     -5.23268622	    -15.26623605	     21.88221604	    -18.64085563	      0.00000000	      0.00000000	    -10.72825236	     -0.52923801	     -0.55419635	      0.53470107	    -37.71268595	     22.46720897	     67.18754595	    110.37109380	      0.00000000	      0.00000000	     12.55929184	    -42.56369398	     58.20504321	     69.53645321	    111.65680247	      0.00000000	      0.00000000
